<svg width="1240px" height="510px" viewBox="0 0 124 51" version="1.1" xmlns="http://www.w3.org/2000/svg" xmlns:xlink="http://www.w3.org/1999/xlink">
    <g stroke="none" stroke-width="1" fill="none" fill-rule="evenodd">
        <g transform="translate(-2.000000, 0.000000)">
            <g id="Outline" transform="translate(16.190819, 1.555501)" fill-rule="nonzero" stroke="#FF4200" stroke-linejoin="bevel" stroke-width="0.5">
                <g>
                    <animateTransform attributeName="transform" type="translate" values=" 0.0, 0.1; 0.0, 0.1; 0.0, 0.0; 0.1, 0.0; 0.0, 0.1; 0.0, 0.0; 0.1, 0.0; 0.1, 0.0; 0.0, 0.0; 0.0, 0.1; 0.0, 0.1; 0.0, 0.1;  0.0, 0.1; 0.0, 0.1; 0.0, 0.0; 0.1, 0.0; 0.1, 0.0; 0.0, 0.1; 0.0, 0.1; 0.0, 0.1; 0.0, 0.1" dur="1000ms" repeatCount="indefinite"></animateTransform>
                    <path d="M18.376873,11.8524757 C18.8347631,13.2967977 18.9164285,14.9522301 18.6758242,16.6782548 L18.535772,29.2607446 L14.940779,29.2607446 L15.0089928,25.3380332 C12.821215,28.3086781 9.95493954,30.542824 6.90159446,31.164718 C4.55802665,31.5660362 2.82920069,31.1400745 1.68719082,30.1937162 C0.470942276,29.1858379 -0.14261725,27.54878 0.0281131689,25.4142666 C0.277963386,22.2905782 2.40873118,17.396027 6.27011634,14.0468445 L8.85078995,16.3404982 C6.21792376,19.0248362 3.82140194,23.1414678 3.61665227,25.7012982 C3.55277813,26.4998683 3.60092896,27.1323814 4.00425381,27.4748538 C4.41437974,27.823101 5.09846307,27.8244815 6.00753696,27.6699536 C7.98090673,27.3345126 9.86642533,25.9383066 11.4147175,24.105415 C13.1495498,22.0516943 14.4632993,19.4293447 14.978113,16.9669832 L15.0146843,12.2283317 L18.376873,11.8524757 Z" id="Path"></path>
                    <path d="M69.0302046,5.49153892 L70.113528,8.91450483 C67.9171793,9.63921393 65.8498869,10.197263 63.8458932,10.585273 L63.8458932,10.585273 L63.9215983,11.5445458 L64.0027813,12.7003234 L64.0631218,13.7395034 L64.0916649,14.3829051 L64.1101411,14.98609 L64.1182012,15.5558504 L64.1095861,16.3551032 C63.9406835,18.8279349 63.7247186,19.4073234 63.3465542,20.5198318 L63.3465542,20.5198318 L59.9171487,19.7348433 C60.3871014,17.4827468 60.4541768,17.0940021 60.4738142,16.8770973 L60.4775416,16.8310373 L60.5059855,14.9843496 L60.4892548,14.4485018 L60.4459284,13.5386968 L60.4061065,12.8793728 L60.3291529,11.7826433 L60.2758257,11.1009696 C59.5025034,11.1730034 58.7317116,11.2180891 57.9562202,11.2360423 L57.9562202,11.2360423 L56.5151167,11.2551178 L56.5032438,7.63604827 C57.6710277,7.66457249 58.8338599,7.62220669 60.0098104,7.50988621 L60.0098104,7.50988621 L59.9627409,6.74654529 L63.5553183,6.54556194 L63.582181,6.96449886 L64.0629181,6.86476664 C64.9799498,6.66418838 65.915006,6.42544151 66.87465,6.14925015 L67.5990958,5.9350971 L69.0302046,5.49153892 Z"> </path>
                    <path d="M47.164139,24.8820034 L50.7098958,25.4275044 L49.7318283,31.7849434 L50.3344524,31.7774925 L51.6847183,31.4375134 L52.3284704,31.2612297 L53.0196209,31.0645186 L54.1405673,30.7323366 L54.9399938,30.4873636 L56.529055,29.9891903 L57.6164496,33.422448 L55.5493204,34.0667155 L54.7339835,34.3131459 L53.9598817,34.5404004 L53.2266386,34.748438 L52.5338336,34.9372179 L51.8863973,35.1053726 L51.2738679,35.255389 L50.7006598,35.3858861 L50.165408,35.4970002 L50.165408,35.4970002 C48.0347992,35.7563346 46.7280995,35.6207217 46.0719751,35.1053726 C45.5378335,34.6858341 45.3151042,33.9503138 45.3645457,33.3133252 C45.3990537,32.8687344 45.5919961,32.3566113 45.9851492,31.8155145 L47.164139,24.8820034 Z M82.048641,-1.77635684e-14 L84.9689247,3.93946912 C86.6824607,6.58235127 88.4592049,8.17054824 90.4798048,8.57809247 C90.6484974,7.04983859 91.0280785,5.51318817 91.640954,3.79729248 L91.9395743,3.03984555 L95.3656102,4.08185634 C94.1618657,7.13573202 93.7189123,9.73679028 94.1392857,11.9719432 L94.1392857,12.3397707 L90.6739314,13.1631959 L90.531181,12.2294989 L90.2624658,12.1969848 C88.6915889,11.9760376 87.2219739,11.3371854 85.8457482,10.2936529 L85.643181,10.1354989 L85.6191405,10.9350539 L85.5932848,11.2171232 L85.5932848,11.2171232 L85.5405478,11.7257524 C85.5316236,11.8046908 85.5226252,11.880824 85.5135421,11.9543195 L85.4579457,12.3649767 C85.4484828,12.4285901 85.4389145,12.4899001 85.4292306,12.5490741 L85.3696556,12.8798245 C85.3492793,12.9824227 85.3283572,13.077815 85.3068067,13.1673396 L85.2401863,13.4196485 L85.2401863,13.4196485 L85.1692972,13.6447799 L85.1692972,13.6447799 L85.0936421,13.8507629 C85.0806081,13.8839437 85.0673548,13.9166612 85.0538718,13.9490827 L84.970135,14.141397 L84.6808783,14.7559977 L81.3149072,13.4563285 L81.6799897,12.6791652 C81.7760374,12.4747053 81.8456412,12.2373233 81.8992046,11.9390274 L81.9117853,11.692 L80.1075229,12.2557992 L79.5095561,12.454967 L79.6376751,12.6959377 C79.8332927,13.0428427 79.9457508,13.1298436 80.0712182,13.1618375 L80.7479361,13.3343991 L80.4587853,15.85 L80.9275162,15.7770734 L81.4576434,15.7011867 L82.1927065,15.6102501 L82.6514473,15.5639623 L84.2053436,15.4989005 L84.5410879,15.5142359 C85.0828446,15.5503703 85.5040556,15.6456513 85.8191073,15.7794672 C86.2369819,15.9569564 86.5429471,16.1891097 86.7613003,16.4446986 C87.0335232,16.7633436 87.1795964,17.1250271 87.2193038,17.5066742 C87.2903535,18.1895681 86.9947192,18.9774259 86.3550485,19.6504992 C86.0869212,19.9326277 85.7317575,20.2346919 85.2920287,20.5576403 L85.025181,20.7474989 L85.2748345,20.6968858 L86.0811099,20.5168756 C86.3569935,20.4524731 86.6417583,20.3833306 86.9333758,20.310121 L88.0087853,20.02 L88.0087625,16.6332172 L87.2889313,15.1921625 L90.8743617,13.3267977 L91.609181,13.813261 L91.6096183,19.5346672 C92.2477497,19.2831208 92.5010013,18.8416924 92.7441791,17.9025131 L93.0913876,16.1050276 L93.2406858,15.1308257 L93.3811457,14.2911485 L93.6025614,13.0777697 L95.8968525,12.1213465 L98.4639203,14.117356 C99.3072304,11.8043888 101.285981,9.03067835 103.188817,7.6211554 L105.726211,9.31858335 L105.533268,9.96172505 C105.472855,10.1631012 105.416904,10.3739446 105.365174,10.5922057 L105.171531,11.5531892 L105.058809,12.3024778 L104.970734,13.0777697 L104.926487,13.5931314 L104.879893,14.3717866 L104.862514,14.8764332 L104.927629,15.8469955 L104.927629,15.8469955 L104.974916,16.7842631 L104.974916,16.7842631 L105.016015,17.9041766 L105.016015,17.9041766 L105.034969,18.1320774 L105.034969,18.1320774 L105.049041,18.2099979 L105.049041,18.2099979 L105.067529,18.2676073 C105.085057,18.3079249 105.108241,18.3299828 105.139721,18.3410248 L105.181649,18.3494514 C105.189357,18.3501291 105.197439,18.3504821 105.205917,18.3505683 L105.496079,18.3310875 L105.496079,18.3310875 L105.59994,18.3310735 L105.59994,18.3310735 L105.718357,18.3385653 L105.718357,18.3385653 L104.465088,21.7592254 C103.163975,21.8038991 101.885294,20.2142101 101.413576,17.7055969 L99.2047894,19.2548319 L96.560181,17.1974989 L96.4917433,17.5984484 L96.3772345,18.187404 C95.8455845,20.7337515 94.8921888,21.8394895 93.0913876,22.7862629 L91.6087853,20.585 L91.609181,23.2444989 L89.9537853,23.244 L89.6071633,23.3488021 C84.3343847,24.9086883 80.9729939,25.1054885 78.2335317,24.3085138 L78.1087853,24.27 L78.109181,28.2444989 L74.009181,28.2444989 L74.009181,24.6444989 L74.508181,24.6444989 L74.5089023,20.7455521 L73.059181,21.2013376 L72.6987853,19.973 L71.4876603,28.9753759 L67.9192457,28.4995873 L68.1476585,26.7959852 L68.0133899,26.9229788 L68.0133899,26.9229788 L66.4279437,28.1254188 L65.8084426,28.5326661 L65.132305,28.9629188 L62.1351283,30.8166821 L61.4250081,31.2698506 L60.309181,31.95687 L59.3768386,32.5614883 C59.1443029,32.3080602 58.9550838,32.189519 58.809181,32.2058646 C58.642604,32.2245263 58.4398163,32.2583095 58.2008181,32.3072141 L57.8151629,32.3919122 L57.8151629,32.3919122 L57.3751918,32.4992924 C57.2973369,32.5190793 57.2172189,32.5398112 57.1348378,32.5614883 L56.1943499,25.0403513 L55.8737853,22.706 L54.9287869,22.5973732 L54.20695,22.5067091 L53.4096994,22.3935732 L53.1156211,22.3446116 L53.1156211,22.3446116 L52.5834655,22.2455754 C51.6710774,22.0614336 51.0873366,21.8586731 50.5167422,21.5637992 L50.3612144,21.48104 L49.1139739,20.7107251 L47.8367306,19.7278215 C47.6649716,20.1968583 47.5523187,20.7290871 47.448823,21.291464 L47.3258269,21.9786725 C47.2486848,22.4091152 47.1696108,22.8495288 47.0753934,23.2905402 L46.9907714,23.670774 L46.9016529,24.0471841 L43.3891967,23.4084965 C43.7550797,21.5465452 43.9374867,20.20672 44.0029849,18.6612945 L44.0179995,18.2341706 L43.365371,18.3409989 L42.6890551,15.7250579 C42.6770674,16.9115438 42.5407755,18.0315515 42.2880792,19.0672692 L42.189352,19.4463611 L42.1165058,20.1131275 L42.0931824,21.093511 L42.1478488,21.8551357 L42.1478488,21.8551357 L42.1899666,22.2756429 L42.1899666,22.2756429 L42.2225358,22.4958867 C42.2871517,22.8603533 42.3822965,23.0190578 42.5665072,23.1446298 L42.6761706,23.2108754 L42.6761706,23.2108754 L43.1322666,23.4324374 L40.7659918,26.3185938 C39.9798894,25.7184835 39.423818,25.2079021 39.0536725,24.511652 C38.2780685,25.1254118 37.4399702,25.6036527 36.5105848,25.9447904 L36.15773,26.0662873 C34.522065,26.6482595 33.1814279,26.5936814 32.1570933,26.0522939 C31.1144857,25.5012487 30.3445879,24.4244045 29.9868777,22.7602743 C29.7983087,21.8830183 29.7120509,20.7990225 29.7343407,19.4907385 C28.2185811,20.4739867 26.5079802,21.1077066 24.5402676,21.4451802 L24.5130291,22.1894451 L24.4388768,23.8268214 L24.3197264,26.0620619 L24.1721679,28.5158612 L24.0544154,30.3592801 L20.4628267,30.1265208 L20.6381781,27.3331513 L20.7460422,25.4754624 L20.855929,23.3419176 L20.924181,21.7424989 L20.0178151,21.7546634 L20.0005401,18.1367328 C20.3083813,18.1439725 20.6093522,18.1463977 20.903671,18.1438231 L21.012181,18.1414989 L21.0122203,17.3246259 L21.0006651,16.5637762 L20.986181,16.1114989 L20.230575,16.4020497 L18.8957853,13.0650756 L19.8138885,12.7053536 L20.1793118,12.5701761 L20.437181,12.4804989 L20.3704748,12.2619311 L23.7719594,11.0988524 L23.881181,11.4474989 L26.7070889,10.6586381 L27.5209457,10.4196479 L28.0735798,10.2467037 L28.3616742,10.1497383 L29.4365517,9.84484094 L30.0850273,10.4972278 L30.7577853,11.07 L30.9392587,10.1218649 L31.1993197,8.80668348 L34.7294627,9.51271208 L34.4753183,10.7975506 L34.2889047,11.7742868 L34.1194029,12.7109413 L33.9661992,13.6109422 L33.7680532,14.884433 L33.657059,15.6811258 L33.5625137,16.4378824 L33.4501392,17.5085678 L33.3963635,18.1615926 L33.3963635,18.1615926 L33.3755857,18.4696011 L33.3445091,19.0790873 C33.2968345,20.2959032 33.3483357,21.2679887 33.5064843,22.0037234 L33.5898521,22.3974656 C33.6456036,22.6353149 33.7128107,22.8167874 33.8581305,22.8993696 C34.0007445,22.9804141 34.1836533,22.9403973 34.4034207,22.8635768 L34.760286,22.7312756 L34.760286,22.7312756 C36.4496406,22.2431441 37.6544787,21.1116411 38.3565793,19.5097226 L38.4632567,19.252904 L38.6207614,18.1912817 L38.7108841,17.0961355 L38.8640694,15.4026677 L39.0848643,13.0554973 L42.5158237,13.0443291 C42.604698,13.7003114 42.659074,14.3420858 42.6800311,14.9672181 L42.5108481,15.042798 C42.9302813,14.844303 43.3248245,14.6927943 43.7020548,14.5854206 L43.9818498,14.5131212 L43.9649137,13.936423 L43.9488255,13.2620839 L43.9365141,12.3802091 L43.936668,11.8344359 L44.0431552,9.02492601 L47.6506095,9.26554588 L47.5661066,10.7528954 L47.5367289,11.8918358 L47.5391998,12.6448826 L47.559181,13.6594989 L47.6084798,13.642241 C50.4298311,12.5726935 51.8589628,11.0277475 52.6892072,7.50402406 L52.76093,7.1879338 L56.2396684,8.14675496 C55.3667987,11.9649869 53.5042692,14.7354081 50.0277306,16.4764441 L49.6970576,16.636651 L50.1090155,16.9736965 L51.6825132,18.0785725 C52.3788082,18.4733214 52.7617875,18.6158663 53.3572189,18.732638 L53.5642859,18.770918 L55.1374073,18.9960878 L57.3026124,19.2479244 L56.9827853,22.121 L57.8674407,22.0410263 L59.3768386,21.9193093 L60.4324997,21.8477481 L61.0948784,21.810226 L61.7266673,21.7809697 L62.3231231,21.7603119 L62.8965219,21.7481459 L63.7102141,21.7467592 L65.0715581,21.8254765 L65.0715581,21.8254765 L65.6941884,21.8714274 L65.6941884,21.8714274 L65.9439834,21.9014601 L65.9439834,21.9014601 C67.1925545,22.1317089 67.7805825,22.3936565 68.1968567,22.7119224 C68.3672513,22.8421989 68.5131643,22.9838095 68.6356001,23.1370499 L68.8384877,21.6048816 L67.970427,20.7376684 L72.2708467,16.4739674 L73.1084086,16.935905 L73.0337853,17.485 L75.1722795,16.9011352 L76.3615891,16.6393092 L77.4733165,16.4050875 L78.1889534,16.2616584 C77.2833346,15.7620637 76.5069122,14.8944745 75.8704688,13.6221603 L74.7666042,13.9536394 L73.8025653,14.2294694 L73.1926732,14.3965544 L72.6127055,14.5491694 L72.0174655,14.696693 L71.3635276,15.372967 L71.3635276,15.372967 L70.2149906,16.5800068 L70.2149906,16.5800068 L69.3261621,17.5211986 L69.3261621,17.5211986 L68.7290689,18.1416685 C68.4370968,18.4407229 68.1594763,18.7171371 67.9164109,18.9444989 L65.3617018,16.3137847 L66.067552,15.6412885 C66.2521361,15.4654266 66.4347486,15.2873354 66.6157,15.10651 C66.431108,15.0333248 66.2684851,14.9459989 66.0872221,14.8514237 L67.0133653,11.8502135 L67.5698566,11.6942532 C67.8329474,11.6178861 68.0738092,11.5438638 68.2947074,11.4718498 L68.7105564,11.3304002 L68.7105564,11.3304002 L69.0771959,11.1937085 C69.420573,11.0591965 69.6961762,10.9309244 69.9221272,10.8062018 L70.1321987,10.6825626 L70.1321987,10.6825626 L70.3131958,10.5606917 L70.3131958,10.5606917 L70.4691455,10.4399913 C70.4932735,10.4199389 70.5165257,10.3999104 70.538986,10.3798932 L70.6649153,10.2598273 C70.6845433,10.239806 70.7035472,10.219771 70.7220108,10.1997102 L70.8269806,10.0789336 L70.8269806,10.0789336 L70.9230111,9.95693578 L70.9230111,9.95693578 L71.0141293,9.83311886 L71.0141293,9.83311886 L71.5685435,9.05299848 L72.1398849,8.22836076 L72.4305893,7.80154541 L73.0291325,6.90905055 L73.6496027,5.96680932 L74.6022019,4.49731979 L77.5344303,5.17594671 C77.6370395,6.14263498 77.7588406,7.02854388 77.8951217,7.81897836 L78.0104324,8.44917119 C78.0547595,8.67746353 78.100544,8.89810569 78.1477412,9.11111773 L78.6599489,8.94283424 L81.6521058,7.94861858 L82.0387853,9.23 L82.048641,9.05048953 L82.0412496,8.20265524 L82.0084086,6.00664796 L82.0100397,4.84492675 L82.048641,-1.77635684e-14 Z M30.1807708,13.3125421 L29.9795822,13.3962416 L29.6484371,13.519046 L29.2592957,13.64933 L28.8112164,13.789945 L27.9358173,14.051086 L24.534181,15.0034989 L24.5570157,15.3479061 L24.5894592,16.0804344 L24.6041812,16.6086681 L24.6131884,17.1570438 L24.616636,17.760139 C25.7161567,17.5108801 26.6898184,17.1333094 27.5596792,16.6052266 L28.4960139,16.0127884 L29.8004337,17.9966732 C29.8288196,17.5827742 29.8659723,17.1506282 29.9120306,16.6998446 L29.9625547,16.2295614 L30.0711703,15.3353167 L30.1895437,14.4730977 L30.3261672,13.5689469 L30.3857171,13.2164383 C30.3215092,13.2486656 30.2533367,13.2806538 30.1807708,13.3125421 Z"> </path>
                    <path d="M63.4331168,25.3592741 L64.042181,25.3674989 L63.7311647,25.5847344 L63.061223,26.012021 L60.6079288,27.5259519 L60.167181,27.8024989 L59.8794292,25.4994004 L61.0017562,25.4292071 L61.6739052,25.397368 L62.3075749,25.3750577 L62.8926877,25.3624617 L63.4331168,25.3592741 Z"></path>
                    <path d="M42.2274319,26.386831 L45.1448939,27.468464 L44.6534172,34.8440127 L45.3296605,36.1967203 L43.1994675,37.2618168 L40.9823732,35.7874152 L41.1871525,32.7134546 C41.0250214,33.0310895 40.8618822,33.3371449 40.6978337,33.631604 L39.3977512,36.0825233 L39.0229113,36.8063576 L38.686954,37.4704021 L38.3093844,38.2429738 L37.9764634,38.9578223 C37.8925559,39.1431151 37.8119378,39.3254487 37.7338106,39.5066184 C36.5796742,42.1829553 35.9200168,44.9433635 36.059181,48.6392285 L32.5224338,48.6392285 C32.3459941,45.6985344 32.7848134,42.4264094 33.8159688,39.6127409 L33.890181,39.4144989 L33.6460305,39.4161572 C32.8813662,39.3997808 32.1247792,39.1955266 31.3780746,38.8002751 L31.1295416,38.6614464 C29.8105747,37.8859364 28.5095571,36.472443 27.2705873,34.3788652 L26.3947475,32.8555702 L29.3554463,31.0299386 L30.7505183,33.1643199 C31.9514512,34.8103994 32.9670382,35.7614291 34.0062874,35.6942635 C34.8881611,35.637269 35.6779811,34.8725633 36.5167371,33.6222557 L36.7983283,33.1878059 C36.8929251,33.0371973 36.9883194,32.8808983 37.0847047,32.7192136 L38.5841441,29.919487 L41.2817475,31.277831 L41.3287058,30.5841941 L39.8892009,29.5044724 L42.2274319,26.386831 Z"> </path>
                </g>
            </g>
            <g transform="translate(17.990568, 6.000000)">
                <g id="Shade" stroke="#D7FF00" stroke-width="2">
                    <animateTransform attributeName="transform" type="translate" values="0.0, 0.1; 0.0, 0.0; 0.1, 0.0; 0.0, 0.1; 0.0, 0.1; 0.0, 0.0; 0.1, 0.0; 0.1, 0.0; 0.0, 0.1; 0.0, 0.1; 0.0, 0.1; 0.0, 0.0; 0.0, 0.1; 0.0, 0.1; 0.0, 0.1;  0.0, 0.1; 0.0, 0.1; 0.0, 0.0; 0.1, 0.0; 0.1, 0.0; 0.0, 0.1" dur="1000ms" repeatCount="indefinite"></animateTransform>
                    <g>
                        <path d="M4.50943209,12 C-0.618902179,17.806668 -2.3270291,26.1620881 4.50943209,25 C11.3458933,23.8379119 16.209955,13.8024855 15.0094321,8.5 L15.0094321,23" id="Path-2" stroke-linecap="square" stroke-linejoin="bevel"></path>
                        <path d="M20.5094321,8 C21.3277762,10.3932902 21.0051826,17.3503314 20.5094321,25" id="Path-3"></path>
                        <path d="M18.5094321,10 C21.0094321,9 27.6062932,7.53541662 28.0094321,7" id="Path-4"></path>
                        <path d="M19.0094321,15.5 C21.9661205,15.4858824 24.7167754,15.0081892 27.0094321,13.5" id="Path-5"></path>
                        <path d="M31.0094321,5.5 C28.5094321,18 29.8427654,21.3333333 33.5094321,20 C37.627028,18.8145526 39.5159879,14.6520329 39.0094321,9.5 C38.5316206,14.7076144 37.9403895,18.627753 39.5094321,20" id="Path-6"></path>
                        <path d="M44.0094321,5.5 C43.7073488,10.0289352 44.5186914,12.9495885 43.5094321,18.5" id="Path-7"></path>
                        <path d="M52.5094321,4 C51.5435487,7.50436125 49.3183589,10.9100215 42.0094321,12 C44.6311822,11.0161946 46.2678196,13.4649648 48.3068009,14.7637389 C49.9992878,15.8418058 50.0094321,16 54.5094321,16.5" id="Path-8" stroke-linejoin="bevel"></path>
                        <path d="M55.5094321,5 C59.5306393,4.98680782 63.3201222,4.16761772 67.0094321,3" id="Path-9"></path>
                        <path d="M60.0094321,3 C60.2464691,7.23703704 61.0049877,11.9955556 60.0094321,15" id="Path-10"></path>
                        <path d="M65.5094321,12.5 C68.7543381,9.40842751 71.4250482,5.51452601 74.0094321,1.5 C74.6760988,7.16666667 76.0094321,10.1666667 78.0094321,10.5" id="Path-11" stroke-linejoin="bevel"></path>
                        <path d="M65.5094321,9 C66.7634312,9.45287359 71.4300979,8.28620693 79.5094321,5.5" id="Path-12"></path>
                        <path d="M81.5094321,9 C82.3015559,7.31377961 81.9877016,3.89386384 82.0094321,1 C84.3249621,4.37418221 87.0655079,6.34682608 90.5094321,6" id="Path-13"></path>
                        <path d="M91.5094321,0 C90.5754314,2.65534502 90.1559808,5.17761671 90.5094321,7.5" id="Path-14"></path>
                        <path d="M27.0094321,29 C30.6624362,35.1826039 34.3291029,34.5159373 38.0094321,27 C35.0938133,32.6333006 32.427853,36.7142971 32.5094321,42.5" id="Path-15" stroke-linecap="square" stroke-linejoin="bevel"></path>
                        <polyline id="Path-16" stroke-linejoin="bevel" points="40.0094321 25.5 41.5094321 23.5 41.0094321 31 42.0094321 30.5"></polyline>
                        <path d="M47.0094321,21.5 L46.0094321,28 C43.6252843,30.4355826 47.6618727,29.6687854 54.5094321,27.5" id="Path-17"></path>
                        <line x1="56.0094321" y1="19" x2="57.0094321" y2="27" id="Path-19"></line>
                        <path d="M55.0094321,19.5 C75.0894321,17.6022222 60.9649877,23.1592593 57.0094321,26.5" id="Path-18"></path>
                        <polyline id="Path-20" points="68.0094321 17 69.0094321 16 68.0094321 23.5"></polyline>
                        <polyline id="Path-22" points="74.5094321 13.5 74.5094321 22 73.0094321 22"></polyline>
                        <path d="M72.5094321,14.5 C94.2567885,9.45500257 77.5094321,17.5 76.5094321,18 C79.1373382,18.9018456 81.8759299,18.5675407 86.0094321,17.5" id="Path-21" stroke-linecap="square" stroke-linejoin="bevel"></path>
                        <polyline id="Path-23" points="87.0094321 12 88.0094321 11.5 88.0094321 18"></polyline>
                        <path d="M91.0094321,16.5 C93.0933449,15.2445683 92.8672349,11.9980777 93.5094321,9.5 L98.0094321,13 C97.4585273,11.6392608 99.2052318,7.20153386 102.009432,5 C101.009432,8.33333333 100.842765,14.8333333 102.509432,15.5" id="Path-24" stroke-linejoin="bevel"></path>
                    </g>
                </g>
            </g>
            <g transform="translate(16.990568, 5.000000)">
                <g id="Foreground" stroke="#6E00FF" stroke-width="2">
                    <animateTransform attributeName="transform" type="translate" values="0.0, 0.1; 0.0, 0.1; 0.0, 0.0; 0.0, 0.1; 0.0, 0.1; 0.0, 0.1; 0.0, 0.1; 0.0, 0.0; 0.1, 0.0; 0.0, 0.1; 0.0, 0.1; 0.0, 0.0; 0.1, 0.0; 0.1, 0.0; 0.0, 0.1; 0.0, 0.1; 0.0, 0.1; 0.0, 0.0; 0.1, 0.0; 0.1, 0.0; 0.0, 0.1" dur="1000ms" repeatCount="indefinite"></animateTransform>
                    <g stroke-dasharray="100">
                        <path stroke-dashoffset="100" pathLength="100" d="M4.50943209,12 C-0.618902179,17.806668 -2.3270291,26.1620881 4.50943209,25 C11.3458933,23.8379119 16.209955,13.8024855 15.0094321,8.5 L15.0094321,23" stroke-linecap="square" stroke-linejoin="bevel">
                            <animate id="anim6895553573" begin="0; anim6895553573.end + 100ms" attributeName="stroke-dashoffset" values="300; 200; 200; 100; 100" keyTimes="0; 0.2; 0.6; 0.8; 1" fill="freeze" dur="3s" repeatCount="1"></animate>
                        </path>
                        <path stroke-dashoffset="100" pathLength="100" d="M20.5094321,8 C21.3277762,10.3932902 21.0051826,17.3503314 20.5094321,25">
                            <animate id="anim4540053960" begin="anim6895553573.begin + 100ms" attributeName="stroke-dashoffset" values="300; 200; 200; 100; 100" keyTimes="0; 0.2; 0.6; 0.8; 1" fill="freeze" dur="3s"></animate>
                        </path>
                        <path stroke-dashoffset="100" pathLength="100" d="M18.5094321,10 C21.0094321,9 27.6062932,7.53541662 28.0094321,7">
                            <animate id="anim6343541706" begin="anim4540053960.begin + 100ms" attributeName="stroke-dashoffset" values="300; 200; 200; 100; 100" keyTimes="0; 0.2; 0.6; 0.8; 1" fill="freeze" dur="3s"></animate>
                        </path>
                        <path stroke-dashoffset="100" pathLength="100" d="M19.0094321,15.5 C21.9661205,15.4858824 24.7167754,15.0081892 27.0094321,13.5">
                            <animate id="anim0829275473" begin="anim6343541706.begin + 100ms" attributeName="stroke-dashoffset" values="300; 200; 200; 100; 100" keyTimes="0; 0.2; 0.6; 0.8; 1" fill="freeze" dur="3s"></animate>
                        </path>
                        <path stroke-dashoffset="100" pathLength="100" d="M31.0094321,5.5 C28.5094321,18 29.8427654,21.3333333 33.5094321,20 C37.627028,18.8145526 39.5159879,14.6520329 39.0094321,9.5 C38.5316206,14.7076144 37.9403895,18.627753 39.5094321,20">
                            <animate id="anim5983646940" begin="anim0829275473.begin + 100ms" attributeName="stroke-dashoffset" values="300; 200; 200; 100; 100" keyTimes="0; 0.2; 0.6; 0.8; 1" fill="freeze" dur="3s"></animate>
                        </path>
                        <path stroke-dashoffset="100" pathLength="100" d="M44.0094321,5.5 C43.7073488,10.0289352 44.5186914,12.9495885 43.5094321,18.5">
                            <animate id="anim7078412080" begin="anim5983646940.begin + 100ms" attributeName="stroke-dashoffset" values="300; 200; 200; 100; 100" keyTimes="0; 0.2; 0.6; 0.8; 1" fill="freeze" dur="3s"></animate>
                        </path>
                        <path stroke-dashoffset="100" pathLength="100" d="M52.5094321,4 C51.5435487,7.50436125 49.3183589,10.9100215 42.0094321,12 C44.6311822,11.0161946 46.2678196,13.4649648 48.3068009,14.7637389 C49.9992878,15.8418058 50.0094321,16 54.5094321,16.5" stroke-linejoin="bevel">
                            <animate id="anim0482415681" begin="anim7078412080.begin + 100ms" attributeName="stroke-dashoffset" values="300; 200; 200; 100; 100" keyTimes="0; 0.2; 0.6; 0.8; 1" fill="freeze" dur="3s"></animate>
                        </path>
                        <path stroke-dashoffset="100" pathLength="100" d="M55.5094321,5 C59.5306393,4.98680782 63.3201222,4.16761772 67.0094321,3">
                            <animate id="anim8840295090" begin="anim0482415681.begin + 100ms" attributeName="stroke-dashoffset" values="300; 200; 200; 100; 100" keyTimes="0; 0.2; 0.6; 0.8; 1" fill="freeze" dur="3s"></animate>
                        </path>
                        <path stroke-dashoffset="100" pathLength="100" d="M60.0094321,3 C60.2464691,7.23703704 61.0049877,11.9955556 60.0094321,15">
                            <animate id="anim1923601765" begin="anim8840295090.begin + 100ms" attributeName="stroke-dashoffset" values="300; 200; 200; 100; 100" keyTimes="0; 0.2; 0.6; 0.8; 1" fill="freeze" dur="3s"></animate>
                        </path>
                        <path stroke-dashoffset="100" pathLength="100" d="M65.5094321,12.5 C68.7543381,9.40842751 71.4250482,5.51452601 74.0094321,1.5 C74.6760988,7.16666667 76.0094321,10.1666667 78.0094321,10.5" stroke-linejoin="bevel">
                            <animate id="anim6549090298" begin="anim1923601765.begin + 100ms" attributeName="stroke-dashoffset" values="300; 200; 200; 100; 100" keyTimes="0; 0.2; 0.6; 0.8; 1" fill="freeze" dur="3s"></animate>
                        </path>
                        <path stroke-dashoffset="100" pathLength="100" d="M65.5094321,9 C66.7634312,9.45287359 71.4300979,8.28620693 79.5094321,5.5">
                            <animate id="anim8913337264" begin="anim6549090298.begin + 100ms" attributeName="stroke-dashoffset" values="300; 200; 200; 100; 100" keyTimes="0; 0.2; 0.6; 0.8; 1" fill="freeze" dur="3s"></animate>
                        </path>
                        <path stroke-dashoffset="100" pathLength="100" d="M81.5094321,9 C82.3015559,7.31377961 81.9877016,3.89386384 82.0094321,1 C84.3249621,4.37418221 87.0655079,6.34682608 90.5094321,6">
                            <animate id="anim8393277987" begin="anim8913337264.begin + 100ms" attributeName="stroke-dashoffset" values="300; 200; 200; 100; 100" keyTimes="0; 0.2; 0.6; 0.8; 1" fill="freeze" dur="3s"></animate>
                        </path>
                        <path stroke-dashoffset="100" pathLength="100" d="M91.5094321,0 C90.5754314,2.65534502 90.1559808,5.17761671 90.5094321,7.5">
                            <animate id="anim7302102756" begin="anim8393277987.begin + 100ms" attributeName="stroke-dashoffset" values="300; 200; 200; 100; 100" keyTimes="0; 0.2; 0.6; 0.8; 1" fill="freeze" dur="3s"></animate>
                        </path>
                        <path stroke-dashoffset="100" pathLength="100" d="M27.0094321,29 C30.6624362,35.1826039 34.3291029,34.5159373 38.0094321,27 C35.0938133,32.6333006 32.427853,36.7142971 32.5094321,42.5" stroke-linecap="square" stroke-linejoin="bevel">
                            <animate id="anim7461794841" begin="anim0829275473.begin + 100ms" attributeName="stroke-dashoffset" values="300; 200; 200; 100; 100" keyTimes="0; 0.2; 0.6; 0.8; 1" fill="freeze" dur="3s"></animate>
                        </path>
                        <polyline stroke-dashoffset="100" pathLength="100" stroke-linejoin="bevel" points="40.0094321 25.5 41.5094321 23.5 41.0094321 31 42.0094321 30.5">
                            <animate id="anim6077995556" begin="anim7461794841.begin + 100ms" attributeName="stroke-dashoffset" values="300; 200; 200; 100; 100" keyTimes="0; 0.2; 0.6; 0.8; 1" fill="freeze" dur="3s"></animate>
                        </polyline>
                        <path stroke-dashoffset="100" pathLength="100" d="M47.0094321,21.5 L46.0094321,28 C43.6252843,30.4355826 47.6618727,29.6687854 54.5094321,27.5">
                            <animate id="anim8646587812" begin="anim6077995556.begin + 100ms" attributeName="stroke-dashoffset" values="300; 200; 200; 100; 100" keyTimes="0; 0.2; 0.6; 0.8; 1" fill="freeze" dur="3s"></animate>
                        </path>
                        <line stroke-dashoffset="100" pathLength="100" x1="56.0094321" y1="19" x2="57.0094321" y2="27">
                            <animate id="anim2981186599" begin="anim8646587812.begin + 100ms" attributeName="stroke-dashoffset" values="300; 200; 200; 100; 100" keyTimes="0; 0.2; 0.6; 0.8; 1" fill="freeze" dur="3s"></animate>
                        </line>
                        <path stroke-dashoffset="100" pathLength="100" d="M55.0094321,19.5 C75.0894321,17.6022222 60.9649877,23.1592593 57.0094321,26.5">
                            <animate id="anim0585424034" begin="anim2981186599.begin + 100ms" attributeName="stroke-dashoffset" values="300; 200; 200; 100; 100" keyTimes="0; 0.2; 0.6; 0.8; 1" fill="freeze" dur="3s"></animate>
                        </path>
                        <polyline stroke-dashoffset="100" pathLength="100" points="68.0094321 17 69.0094321 16 68.0094321 23.5">
                            <animate id="anim4271895763" begin="anim0585424034.begin + 100ms" attributeName="stroke-dashoffset" values="300; 200; 200; 100; 100" keyTimes="0; 0.2; 0.6; 0.8; 1" fill="freeze" dur="3s"></animate>
                        </polyline>
                        <polyline stroke-dashoffset="100" pathLength="100" points="74.5094321 13.5 74.5094321 22 73.0094321 22">
                            <animate id="anim9813388289" begin="anim4271895763.begin + 100ms" attributeName="stroke-dashoffset" values="300; 200; 200; 100; 100" keyTimes="0; 0.2; 0.6; 0.8; 1" fill="freeze" dur="3s"></animate>
                        </polyline>
                        <path stroke-dashoffset="100" pathLength="100" d="M72.5094321,14.5 C94.2567885,9.45500257 77.5094321,17.5 76.5094321,18 C79.1373382,18.9018456 81.8759299,18.5675407 86.0094321,17.5" stroke-linecap="square" stroke-linejoin="bevel">
                            <animate id="anim0446141825" begin="anim9813388289.begin + 100ms" attributeName="stroke-dashoffset" values="300; 200; 200; 100; 100" keyTimes="0; 0.2; 0.6; 0.8; 1" fill="freeze" dur="3s"></animate>
                        </path>
                        <polyline stroke-dashoffset="100" pathLength="100" points="87.0094321 12 88.0094321 11.5 88.0094321 18">
                            <animate id="anim7317938101" begin="anim0446141825.begin + 100ms" attributeName="stroke-dashoffset" values="300; 200; 200; 100; 100" keyTimes="0; 0.2; 0.6; 0.8; 1" fill="freeze" dur="3s"></animate>
                        </polyline>
                        <path stroke-dashoffset="100" pathLength="100" d="M91.0094321,16.5 C93.0933449,15.2445683 92.8672349,11.9980777 93.5094321,9.5 L98.0094321,13 C97.4585273,11.6392608 99.2052318,7.20153386 102.009432,5 C101.009432,8.33333333 100.842765,14.8333333 102.509432,15.5" stroke-linejoin="bevel">
                            <animate id="anim6864144186" begin="anim7317938101.begin + 100ms" attributeName="stroke-dashoffset" values="300; 200; 200; 100; 100" keyTimes="0; 0.2; 0.6; 0.8; 1" fill="freeze" dur="3s"></animate>
                        </path>
                    </g>
                </g>
            </g>
            <g id="Vibe" transform="translate(2.500000, 4.000000)" stroke="#6E00FF" stroke-width="0.6" stroke-dasharray="40 10">
                <path pathLength="100" d="M39,32 C36.4088889,33.9288889 33.2351852,35.3546296 28,35" id="Path-47">
                    <animateTransform attributeName="transform" type="rotate" values="-0.3 11 06; 0.3 09 09; -0.3 02 99" dur="500ms" repeatCount="indefinite"></animateTransform>
                </path>
                <path pathLength="100" d="M110,3.5 C111.799926,4.04350013 113.417102,2.24169347 115,0" id="Path-34">
                    <animateTransform attributeName="transform" type="rotate" values="-0.3 18 95; 0.3 86 41; -0.3 74 20" dur="500ms" repeatCount="indefinite"></animateTransform>
                </path>
                <path pathLength="100" d="M109,5.5 C112.15781,5.60357159 114.002405,4.21485384 116,3" id="Path-35">
                    <animateTransform attributeName="transform" type="rotate" values="-0.3 40 88; 0.3 64 39; -0.3 57 36" dur="500ms" repeatCount="indefinite"></animateTransform>
                </path>
                <path pathLength="100" d="M109,7.00000012 C111.074074,7.20370382 111.944444,6.80555568 113,6.50000012" id="Path-36">
                    <animateTransform attributeName="transform" type="rotate" values="-0.3 46 03; 0.3 48 24; -0.3 47 64" dur="500ms" repeatCount="indefinite"></animateTransform>
                </path>
                <path pathLength="100" d="M39.5,33.5 C37.1666651,35.5173618 34.833333,36.2870374 32.5,37" id="Path-48">
                    <animateTransform attributeName="transform" type="rotate" values="-0.3 51 33; 0.3 59 24; -0.3 27 08" dur="500ms" repeatCount="indefinite"></animateTransform>
                </path>
                <g transform="translate(7.500000, 26.358705) rotate(30.000000) translate(-7.500000, -26.358705) translate(1.500000, 21.858705)">
                    <path pathLength="100" d="M11.8660254,2.90924378 C8.503663,3.97426955 5.7292551,5.70794945 3.3660254,7.90924378" id="Path-60" transform="translate(7.616025, 5.409244) rotate(-2.000000) translate(-7.616025, -5.409244) ">
                        <animateTransform attributeName="transform" type="rotate" values="-0.3 46 62; 0.3 10 92; -0.3 23 99" dur="500ms" repeatCount="indefinite"></animateTransform>
                    </path>
                    <path pathLength="100" d="M10.9999999,2.40924369 C6.01279612,2.25897661 3.12572885,3.49768873 0.499999945,4.90924369" id="Path-61" transform="translate(5.750000, 3.653048) rotate(-4.000000) translate(-5.750000, -3.653048) ">
                        <animateTransform attributeName="transform" type="rotate" values="-0.3 84 46; 0.3 02 63; -0.3 09 59" dur="500ms" repeatCount="indefinite"></animateTransform>
                    </path>
                    <path pathLength="100" d="M10.1339746,1.40924378 C7.02286349,0.687021561 5.71730793,0.867577117 4.1339746,0.909243783" id="Path-62">
                        <animateTransform attributeName="transform" type="rotate" values="-0.3 45 63; 0.3 55 76; -0.3 51 29" dur="500ms" repeatCount="indefinite"></animateTransform>
                    </path>
                </g>
                <path pathLength="100" d="M22,16.5 C20.3958788,18.1734273 19.9497834,19.5862987 19.5,21" id="Path-63">
                    <animateTransform attributeName="transform" type="rotate" values="-0.3 67 02; 0.3 83 49; -0.3 59 78" dur="500ms" repeatCount="indefinite"></animateTransform>
                </path>
                <path pathLength="100" d="M48,16.5 C48,12.75 48.5507138,10.0949781 50.3225363,6.80228608" id="Path-64">
                    <animateTransform attributeName="transform" type="rotate" values="-0.3 35 52; 0.3 47 17; -0.3 16 56" dur="500ms" repeatCount="indefinite"></animateTransform>
                </path>
                <path pathLength="100" d="M49,17 C49.0771794,14.8868945 49,12.75 50.6931875,10" id="Path-65">
                    <animateTransform attributeName="transform" type="rotate" values="-0.3 48 34; 0.3 22 10; -0.3 84 79" dur="500ms" repeatCount="indefinite"></animateTransform>
                </path>
                <path pathLength="100" d="M65.5,14.5 C67.0503134,13.5231909 68.3286654,12.3084155 69.5,11" id="Path-66">
                    <animateTransform attributeName="transform" type="rotate" values="-0.3 67 13; 0.3 50 62; -0.3 92 58" dur="500ms" repeatCount="indefinite"></animateTransform>
                </path>
                <path pathLength="100" d="M67.5,15 C68.8333333,14.3333333 70.1666667,13 71.5,11" id="Path-67">
                    <animateTransform attributeName="transform" type="rotate" values="-0.3 20 54; 0.3 04 48; -0.3 31 70" dur="500ms" repeatCount="indefinite"></animateTransform>
                </path>
                <path pathLength="100" d="M48,17.5 C48.1929222,18.4037095 48,20.1009655 51.5,16" id="Path-75">
                    <animateTransform attributeName="transform" type="rotate" values="-0.3 92 28; 0.3 45 50; -0.3 70 22" dur="500ms" repeatCount="indefinite"></animateTransform>
                </path>
                <path pathLength="100" d="M38.75,25.8302624 C39,23.2703121 39.066181,21.6948218 39.0936027,19.8013985 C40.416741,19.5218558 41.4813026,19.0795092 42.5,18.6082857 C42.5826926,20.2438191 43.1173919,22.3289803 43.7758463,23.2703121" id="Path-76">
                    <animateTransform attributeName="transform" type="rotate" values="-0.3 95 86; 0.3 33 12; -0.3 57 51" dur="500ms" repeatCount="indefinite"></animateTransform>
                </path>
                <path pathLength="100" d="M26,18.5 C23.0492843,21.6766623 20.3485946,23.9232281 18.5,23" id="Path-79">
                    <animateTransform attributeName="transform" type="rotate" values="-0.3 42 95; 0.3 18 76; -0.3 78 15" dur="500ms" repeatCount="indefinite"></animateTransform>
                </path>
                <path pathLength="100" d="M45,29 C46.3800158,31.7162575 48.1220632,31.9970294 50.5,28" id="Path-81">
                    <animateTransform attributeName="transform" type="rotate" values="-0.3 05 13; 0.3 87 12; -0.3 65 47" dur="500ms" repeatCount="indefinite"></animateTransform>
                </path>
                <path pathLength="100" d="M52,39.5 C52.0381594,38.0952114 52.3783287,36.5645852 54,34.5" id="Path-82">
                    <animateTransform attributeName="transform" type="rotate" values="-0.3 52 94; 0.3 84 52; -0.3 76 41" dur="500ms" repeatCount="indefinite"></animateTransform>
                </path>
                <path pathLength="100" d="M62,21.5 L62.5,20 C63.5,21 66,21 67.5,21" id="Path-86">
                    <animateTransform attributeName="transform" type="rotate" values="-0.3 52 68; 0.3 60 29; -0.3 16 34" dur="500ms" repeatCount="indefinite"></animateTransform>
                </path>
                <path pathLength="100" d="M56.5,23 C57.1666667,22.3333333 57.5,22 57.5,22 C57.5,22 58,22 59,22" id="Path-87">
                    <animateTransform attributeName="transform" type="rotate" values="-0.3 74 00; 0.3 27 50; -0.3 62 88" dur="500ms" repeatCount="indefinite"></animateTransform>
                </path>
                <path pathLength="100" d="M108.5,20.5 C109.621204,19.8575553 110.478556,18.581868 111,16.5 L113,18 L114.5,17 C114.91409,18.5093014 115.937936,19.6257356 116.5,20" id="Path-93">
                    <animateTransform attributeName="transform" type="rotate" values="-0.3 78 89; 0.3 45 64; -0.3 01 30" dur="500ms" repeatCount="indefinite"></animateTransform>
                </path>
                <path pathLength="100" d="M106,14.5 C106.187802,13.37032 106.708255,12.8227788 106.5,11 L105,11.5" id="Path-94">
                    <animateTransform attributeName="transform" type="rotate" values="-0.3 26 49; 0.3 74 28; -0.3 43 90" dur="500ms" repeatCount="indefinite"></animateTransform>
                </path>
                <path pathLength="100" d="M99.5,12 C99.9801254,11.0383827 100.172946,10.0415853 100,9 C101,10.625 102,10 103,10.5" id="Path-95" stroke-linejoin="bevel">
                    <animateTransform attributeName="transform" type="rotate" values="-0.3 40 72; 0.3 46 84; -0.3 80 73" dur="500ms" repeatCount="indefinite"></animateTransform>
                </path>
                <path pathLength="100" d="M100,1 C100.208056,1.62199954 101.208056,2.78866621 103,4.5 L104,1" id="Path-97">
                    <animateTransform attributeName="transform" type="rotate" values="-0.3 16 70; 0.3 12 07; -0.3 40 84" dur="500ms" repeatCount="indefinite"></animateTransform>
                </path>
                <path pathLength="100" d="M109,8.2 C109.948868,8.33063063 111.670882,9.12420813 112,9.7" id="Path-98">
                    <animateTransform attributeName="transform" type="rotate" values="-0.3 10 11; 0.3 41 64; -0.3 36 48" dur="500ms" repeatCount="indefinite"></animateTransform>
                </path>
                <path pathLength="100" d="M119.896084,15.2871296 C119.552395,14.6270505 119.552395,12.5146739 119.896084,8.95" id="Path-99">
                    <animateTransform attributeName="transform" type="rotate" values="-0.3 46 10; 0.3 33 33; -0.3 69 74" dur="500ms" repeatCount="indefinite"></animateTransform>
                </path>
                <path pathLength="100" d="M120.723332,14.8440684 C120.714718,12.8985419 121.288151,11.5041904 122.099657,10.3352854" id="Path-100">
                    <animateTransform attributeName="transform" type="rotate" values="-0.3 21 06; 0.3 13 06; -0.3 71 45" dur="500ms" repeatCount="indefinite"></animateTransform>
                </path>
                <path pathLength="100" d="M58.062794,35.7889466 L60.2999999,34.1944274 C62.5106968,35.08248 66.6196214,33.6771575 70.1019411,33.028878" id="Path-101">
                    <animateTransform attributeName="transform" type="rotate" values="-0.3 63 75; 0.3 75 22; -0.3 49 74" dur="500ms" repeatCount="indefinite"></animateTransform>
                </path>
                <path pathLength="100" d="M23.0864937,29.25 C23.4683966,29.4424853 24.8142511,28.4990308 27.1240573,26.4196364 L27.6558145,27.1093368 L31.6989174,27" id="Path-102">
                    <animateTransform attributeName="transform" type="rotate" values="-0.3 17 60; 0.3 72 61; -0.3 22 49" dur="500ms" repeatCount="indefinite"></animateTransform>
                </path>
                <path pathLength="100" d="M45.5351846,24.75 C46.781049,25.4704458 48.6506643,25.3423687 51.25,24.2216125" id="Path-104">
                    <animateTransform attributeName="transform" type="rotate" values="-0.3 17 35; 0.3 87 22; -0.3 29 47" dur="500ms" repeatCount="indefinite"></animateTransform>
                </path>
                <polyline pathLength="100" points="78 18.5 79 15.5 80 16.5">
                    <animateTransform attributeName="transform" type="rotate" values="-0.3 30 35; 0.3 63 29; -0.3 40 51" dur="500ms" repeatCount="indefinite"></animateTransform>
                </polyline>
                <polyline pathLength="100" points="79.5 18.5 80.5 18.5 81 17.5">
                    <animateTransform attributeName="transform" type="rotate" values="-0.3 88 07; 0.3 26 75; -0.3 90 36" dur="500ms" repeatCount="indefinite"></animateTransform>
                </polyline>
                <polyline pathLength="100" points="72 16.5 72 18.5 73.5 18.5">
                    <animateTransform attributeName="transform" type="rotate" values="-0.3 04 18; 0.3 59 00; -0.3 98 13" dur="500ms" repeatCount="indefinite"></animateTransform>
                </polyline>
                <polyline pathLength="100" points="79.5 8.5 78.5 9 78.5 10">
                    <animateTransform attributeName="transform" type="rotate" values="-0.3 14 21; 0.3 48 66; -0.3 33 10" dur="500ms" repeatCount="indefinite"></animateTransform>
                </polyline>
                <polyline pathLength="100" points="84 3 84.5 4.5 86.5 1.5">
                    <animateTransform attributeName="transform" type="rotate" values="-0.3 50 68; 0.3 62 95; -0.3 30 63" dur="500ms" repeatCount="indefinite"></animateTransform>
                </polyline>
                <polyline pathLength="100" points="92 2 93 5 94.5 4.5 94.5 1.5">
                    <animateTransform attributeName="transform" type="rotate" values="-0.3 69 09; 0.3 40 80; -0.3 28 91" dur="500ms" repeatCount="indefinite"></animateTransform>
                </polyline>
                <polyline pathLength="100" points="53 23.5 53.5 25 52.5 26">
                    <animateTransform attributeName="transform" type="rotate" values="-0.3 48 82; 0.3 77 68; -0.3 74 55" dur="500ms" repeatCount="indefinite"></animateTransform>
                </polyline>
                <polyline pathLength="100" points="93 23 93 25 91.5 26.5 89 27">
                    <animateTransform attributeName="transform" type="rotate" values="-0.3 10 02; 0.3 13 90; -0.3 13 83" dur="500ms" repeatCount="indefinite"></animateTransform>
                </polyline>
                <polyline pathLength="100" points="96.5 23.5 104 21.5 107 21.5">
                    <animateTransform attributeName="transform" type="rotate" values="-0.3 56 07; 0.3 47 02; -0.3 28 64" dur="500ms" repeatCount="indefinite"></animateTransform>
                </polyline>
                <polyline pathLength="100" points="34.3027089 28.5403479 37.2579787 28.718722 38.3826874 27.7047847">
                    <animateTransform attributeName="transform" type="rotate" values="-0.3 08 55; 0.3 47 37; -0.3 31 83" dur="500ms" repeatCount="indefinite"></animateTransform>
                </polyline>
                <line pathLength="100" x1="51" y1="45" x2="55" y2="44">
                    <animateTransform attributeName="transform" type="rotate" values="-0.3 87 52; 0.3 19 83; -0.3 01 94" dur="500ms" repeatCount="indefinite"></animateTransform>
                </line>
                <line pathLength="100" x1="51" y1="43.5" x2="54.5" y2="42">
                    <animateTransform attributeName="transform" type="rotate" values="-0.3 59 57; 0.3 03 38; -0.3 45 47" dur="500ms" repeatCount="indefinite"></animateTransform>
                </line>
                <line pathLength="100" x1="51" y1="42" x2="55" y2="39">
                    <animateTransform attributeName="transform" type="rotate" values="-0.3 82 03; 0.3 89 46; -0.3 24 87" dur="500ms" repeatCount="indefinite"></animateTransform>
                </line>
                <line pathLength="100" x1="40.5" y1="35" x2="36.5" y2="38">
                    <animateTransform attributeName="transform" type="rotate" values="-0.3 54 88; 0.3 22 57; -0.3 05 85" dur="500ms" repeatCount="indefinite"></animateTransform>
                </line>
                <line pathLength="100" x1="85.5" y1="14" x2="89" y2="12.5">
                    <animateTransform attributeName="transform" type="rotate" values="-0.3 91 24; 0.3 25 96; -0.3 85 16" dur="500ms" repeatCount="indefinite"></animateTransform>
                </line>
                <line pathLength="100" x1="39" y1="13.5" x2="43" y2="12.5">
                    <animateTransform attributeName="transform" type="rotate" values="-0.3 83 55; 0.3 91 54; -0.3 85 51" dur="500ms" repeatCount="indefinite"></animateTransform>
                </line>
                <line pathLength="100" x1="33.5" y1="20.5" x2="33.5" y2="22.5">
                    <animateTransform attributeName="transform" type="rotate" values="-0.3 93 32; 0.3 72 02; -0.3 55 67" dur="500ms" repeatCount="indefinite"></animateTransform>
                </line>
                <line pathLength="100" x1="27.5" y1="10.5" x2="27.5" y2="14.5">
                    <animateTransform attributeName="transform" type="rotate" values="-0.3 84 87; 0.3 32 27; -0.3 63 73" dur="500ms" repeatCount="indefinite"></animateTransform>
                </line>
                <line pathLength="100" x1="66" y1="23" x2="65" y2="27.5">
                    <animateTransform attributeName="transform" type="rotate" values="-0.3 20 04; 0.3 62 06; -0.3 16 26" dur="500ms" repeatCount="indefinite"></animateTransform>
                </line>
                <line pathLength="100" x1="66.5" y1="27" x2="69" y2="26">
                    <animateTransform attributeName="transform" type="rotate" values="-0.3 13 20; 0.3 05 44; -0.3 29 55" dur="500ms" repeatCount="indefinite"></animateTransform>
                </line>
                <line pathLength="100" x1="67" y1="25" x2="68.5" y2="24">
                    <animateTransform attributeName="transform" type="rotate" values="-0.3 62 76; 0.3 59 94; -0.3 55 33" dur="500ms" repeatCount="indefinite"></animateTransform>
                </line>
                <line pathLength="100" x1="74" y1="31" x2="81" y2="26.5">
                    <animateTransform attributeName="transform" type="rotate" values="-0.3 79 04; 0.3 51 31; -0.3 24 92" dur="500ms" repeatCount="indefinite"></animateTransform>
                </line>
                <line pathLength="100" x1="87" y1="19.5" x2="86.5" y2="26.5">
                    <animateTransform attributeName="transform" type="rotate" values="-0.3 82 18; 0.3 02 03; -0.3 78 36" dur="500ms" repeatCount="indefinite"></animateTransform>
                </line>
                <line pathLength="100" x1="95" y1="12" x2="96" y2="12.5">
                    <animateTransform attributeName="transform" type="rotate" values="-0.3 17 67; 0.3 35 22; -0.3 45 48" dur="500ms" repeatCount="indefinite"></animateTransform>
                </line>
            </g>
        </g>
    </g>
</svg>
